<?xml version="1.0" standalone="no"?>
<!DOCTYPE svg PUBLIC "-//W3C//DTD SVG 20010904//EN"
 "http://www.w3.org/TR/2001/REC-SVG-20010904/DTD/svg10.dtd">
<svg version="1.0" xmlns="http://www.w3.org/2000/svg"
 width="80.000000pt" height="80.000000pt" viewBox="0 0 80.000000 80.000000"
 preserveAspectRatio="xMidYMid meet">
<metadata>
Created by potrace 1.11, written by Peter Selinger 2001-2013
</metadata>
<g transform="translate(0.000000,80.000000) scale(0.100000,-0.100000)"
fill="#000000" stroke="none">
<path d="M130 618 c-41 -72 -87 -153 -102 -179 -14 -26 -22 -51 -18 -55 8 -9
129 -215 173 -296 l21 -38 198 0 c196 0 199 0 208 23 6 12 14 29 20 37 5 8 24
40 41 70 18 30 53 92 79 137 l47 81 -24 44 c-28 48 -42 71 -121 211 l-55 97
-196 0 -196 0 -75 -132z"/>
</g>
</svg>
